<svg xmlns="http://www.w3.org/2000/svg" xmlns:xlink="http://www.w3.org/1999/xlink" viewBox="0 0 515.21 107.74"><defs><style>.cls-1{fill:none;}.cls-2{fill:#457a78;}.cls-3{clip-path:url(#clip-path);}.cls-4{fill:#979797;}.cls-5{fill:#769b8d;}</style><clipPath id="clip-path" transform="translate(0.02)"><rect class="cls-1" width="107.85" height="107.74"/></clipPath></defs><g id="Laag_2" data-name="Laag 2"><g id="Laag_1-2" data-name="Laag 1"><polygon class="cls-2" points="0.18 67.86 40.46 27.58 53.94 41.06 13.66 81.34 0.18 67.86 0.18 67.86"/><g class="cls-3"><polygon class="cls-2" points="40.16 54.23 94.39 0 107.87 13.48 53.64 67.71 40.16 54.23 40.16 54.23"/><polygon class="cls-2" points="0 93.61 107.65 93.61 107.65 107.74 0 107.74 0 93.61 0 93.61"/></g><path class="cls-4" d="M135.67,50.78V63.84h-6.91V26.73h12.09a21.21,21.21,0,0,1,6.44.87,12.5,12.5,0,0,1,4.5,2.44,9.47,9.47,0,0,1,2.61,3.74,13.94,13.94,0,0,1-.05,9.72,10.36,10.36,0,0,1-2.69,3.87,12.7,12.7,0,0,1-4.5,2.51,19.92,19.92,0,0,1-6.31.9Zm0-5.39h5.18a10.27,10.27,0,0,0,3.31-.48,6.13,6.13,0,0,0,2.34-1.36,5.57,5.57,0,0,0,1.38-2.15,8.25,8.25,0,0,0,.46-2.84,7.41,7.41,0,0,0-.46-2.69,5.31,5.31,0,0,0-1.38-2.06,6.45,6.45,0,0,0-2.34-1.3,11.25,11.25,0,0,0-3.31-.44h-5.18Z" transform="translate(0.02)"/><path class="cls-4" d="M167,25.7V63.84h-6.34V25.7Z" transform="translate(0.02)"/><path class="cls-4" d="M185.41,37.1a14.48,14.48,0,0,1,5.35.95,11.56,11.56,0,0,1,4.1,2.69A12.1,12.1,0,0,1,197.48,45a17.72,17.72,0,0,1,0,11.27,12.23,12.23,0,0,1-2.62,4.29,11.37,11.37,0,0,1-4.1,2.72,15.57,15.57,0,0,1-10.71,0,11.36,11.36,0,0,1-4.12-2.72,12.29,12.29,0,0,1-2.65-4.29,17.54,17.54,0,0,1,0-11.27,12.16,12.16,0,0,1,2.65-4.26,11.56,11.56,0,0,1,4.12-2.69A14.53,14.53,0,0,1,185.41,37.1Zm0,22.25a5.58,5.58,0,0,0,4.87-2.21q1.58-2.2,1.57-6.46c0-2.85-.52-5-1.57-6.5A5.57,5.57,0,0,0,185.41,42a5.63,5.63,0,0,0-4.93,2.25,11.11,11.11,0,0,0-1.59,6.48,11,11,0,0,0,1.59,6.45A5.66,5.66,0,0,0,185.41,59.35Z" transform="translate(0.02)"/><path class="cls-4" d="M212,64.25a6.93,6.93,0,0,1-5.26-1.93A7.48,7.48,0,0,1,204.89,57V42.26h-2.67a1.27,1.27,0,0,1-.88-.34,1.26,1.26,0,0,1-.38-1V38.41l4.24-.7,1.34-7.18a1.22,1.22,0,0,1,.47-.8,1.5,1.5,0,0,1,.94-.28h3.28v8.29h6.93v4.52h-6.93V56.53a2.79,2.79,0,0,0,.62,1.92,2.1,2.1,0,0,0,1.64.7,3.15,3.15,0,0,0,1-.14q.39-.15.69-.3l.53-.29a.82.82,0,0,1,.46-.14.68.68,0,0,1,.46.14,2,2,0,0,1,.39.42l1.9,3.08a9.59,9.59,0,0,1-3.19,1.74A11.63,11.63,0,0,1,212,64.25Z" transform="translate(0.02)"/><path class="cls-4" d="M230,25.7V63.84h-6.34V25.7Z" transform="translate(0.02)"/><path class="cls-4" d="M246.48,71.08a2.46,2.46,0,0,1-.74,1,2.23,2.23,0,0,1-1.37.34h-4.72l4.93-10.55L233.92,37.51h5.55a1.75,1.75,0,0,1,1.18.36,2.29,2.29,0,0,1,.61.82l5.62,13.65a10.89,10.89,0,0,1,.49,1.39q.21.72.36,1.44.21-.75.45-1.44c.16-.46.34-.93.53-1.41L254,38.69a1.88,1.88,0,0,1,1.74-1.18h5.08Z" transform="translate(0.02)"/><path class="cls-4" d="M281.92,49.34v14.5H275V26.73h11.32a23.66,23.66,0,0,1,6.5.78,12.3,12.3,0,0,1,4.44,2.19,8.53,8.53,0,0,1,2.55,3.38,11.91,11.91,0,0,1,.25,7.87,10.21,10.21,0,0,1-1.59,3,10.48,10.48,0,0,1-2.57,2.38A13.1,13.1,0,0,1,292.45,48a6.81,6.81,0,0,1,2.26,2.13L304,63.84h-6.21a2.91,2.91,0,0,1-2.6-1.38l-7.8-11.88a2.74,2.74,0,0,0-1-1,3.37,3.37,0,0,0-1.56-.28Zm0-5h4.31a10.62,10.62,0,0,0,3.41-.49A6.54,6.54,0,0,0,292,42.55a5.33,5.33,0,0,0,1.4-2,7,7,0,0,0,.46-2.59A5.28,5.28,0,0,0,292,33.58q-1.86-1.52-5.68-1.51h-4.42Z" transform="translate(0.02)"/><path class="cls-4" d="M318.94,37.1a13,13,0,0,1,4.58.79,10.06,10.06,0,0,1,3.6,2.32A10.57,10.57,0,0,1,329.48,44a14.07,14.07,0,0,1,.85,5.07,10,10,0,0,1-.06,1.2A1.9,1.9,0,0,1,330,51a1,1,0,0,1-.45.39,2.1,2.1,0,0,1-.72.11H312.6c.18,2.71.91,4.69,2.18,6a6.81,6.81,0,0,0,5,1.9,8.78,8.78,0,0,0,2.66-.36,12.91,12.91,0,0,0,1.95-.8c.55-.29,1-.55,1.46-.79A2.34,2.34,0,0,1,327.1,57a1.41,1.41,0,0,1,.67.15,1.43,1.43,0,0,1,.48.44l1.85,2.31A10.74,10.74,0,0,1,327.74,62,13.78,13.78,0,0,1,325,63.32a14.76,14.76,0,0,1-2.9.7,20.43,20.43,0,0,1-2.87.21,14.17,14.17,0,0,1-5.1-.91,11.4,11.4,0,0,1-4.11-2.7,12.62,12.62,0,0,1-2.75-4.41,17.3,17.3,0,0,1-1-6.1,14.64,14.64,0,0,1,.87-5.07,12.12,12.12,0,0,1,2.51-4.13,11.64,11.64,0,0,1,4-2.78A13,13,0,0,1,318.94,37.1Zm.12,4.54a5.83,5.83,0,0,0-4.33,1.57,7.72,7.72,0,0,0-2,4.44h11.91a8.05,8.05,0,0,0-.33-2.33,5.28,5.28,0,0,0-1-1.91,4.72,4.72,0,0,0-1.74-1.29A5.92,5.92,0,0,0,319.06,41.64Z" transform="translate(0.02)"/><path class="cls-4" d="M351.12,42.64a1.61,1.61,0,0,1-.54.58,1.42,1.42,0,0,1-.72.17,2.28,2.28,0,0,1-1-.26l-1.22-.58a12,12,0,0,0-1.58-.58,7.63,7.63,0,0,0-2.09-.25,4.91,4.91,0,0,0-3,.79A2.49,2.49,0,0,0,340,44.59a2,2,0,0,0,.55,1.43A5,5,0,0,0,342,47a14.48,14.48,0,0,0,2.07.78c.77.23,1.55.49,2.36.76s1.59.59,2.36.94a8.24,8.24,0,0,1,2.07,1.33,6.4,6.4,0,0,1,1.46,1.94,6.11,6.11,0,0,1,.55,2.72,8.79,8.79,0,0,1-.69,3.51,7.68,7.68,0,0,1-2,2.77,9.54,9.54,0,0,1-3.3,1.82,14.12,14.12,0,0,1-4.5.65,14.54,14.54,0,0,1-2.66-.24,15.75,15.75,0,0,1-2.49-.68,13.58,13.58,0,0,1-2.21-1A10.68,10.68,0,0,1,333.18,61l1.46-2.41a2.14,2.14,0,0,1,.67-.67,1.92,1.92,0,0,1,1-.23,2.05,2.05,0,0,1,1.11.33c.35.23.76.46,1.22.72a10.44,10.44,0,0,0,1.63.72,7.3,7.3,0,0,0,2.38.33,6.39,6.39,0,0,0,1.93-.26,4.14,4.14,0,0,0,1.34-.71,2.71,2.71,0,0,0,.77-1,3,3,0,0,0,.24-1.19,2.1,2.1,0,0,0-.55-1.51,4.81,4.81,0,0,0-1.46-1,14.19,14.19,0,0,0-2.08-.78c-.78-.23-1.58-.49-2.39-.76a23.37,23.37,0,0,1-2.39-1,8.26,8.26,0,0,1-2.08-1.4,6.55,6.55,0,0,1-1.46-2.08,7.21,7.21,0,0,1-.55-3,7.56,7.56,0,0,1,.64-3.08,7.32,7.32,0,0,1,1.89-2.55,9.37,9.37,0,0,1,3.1-1.75,14.31,14.31,0,0,1,9.26.25,10.93,10.93,0,0,1,3.72,2.36Z" transform="translate(0.02)"/><path class="cls-4" d="M378.56,63.84h-2.85a3,3,0,0,1-1.41-.27,1.73,1.73,0,0,1-.77-1.09L373,60.61a23.5,23.5,0,0,1-2,1.58,12,12,0,0,1-2,1.14,9.73,9.73,0,0,1-2.18.69,12.66,12.66,0,0,1-2.57.23,10,10,0,0,1-3.07-.45,6.48,6.48,0,0,1-2.43-1.35,6.15,6.15,0,0,1-1.58-2.24,7.88,7.88,0,0,1-.56-3.11,6.17,6.17,0,0,1,.78-3,7.38,7.38,0,0,1,2.6-2.63,16.64,16.64,0,0,1,4.86-1.94,30.62,30.62,0,0,1,7.52-.78V47.25a5.88,5.88,0,0,0-1.12-3.94A4.07,4.07,0,0,0,368,42a7.55,7.55,0,0,0-2.56.36,10.75,10.75,0,0,0-1.79.8c-.5.3-1,.57-1.4.81a2.79,2.79,0,0,1-1.41.36,1.84,1.84,0,0,1-1.1-.33,2.67,2.67,0,0,1-.75-.82l-1.15-2a15.67,15.67,0,0,1,11-4.16,10.51,10.51,0,0,1,4.12.76,8.88,8.88,0,0,1,3.07,2.1,9.23,9.23,0,0,1,1.91,3.23,12.46,12.46,0,0,1,.65,4.1Zm-12.32-4a8.45,8.45,0,0,0,1.8-.18,6.31,6.31,0,0,0,1.55-.53,7.45,7.45,0,0,0,1.41-.87,11.64,11.64,0,0,0,1.38-1.23v-4.4a25.13,25.13,0,0,0-4.64.35,12.33,12.33,0,0,0-3,.89,3.74,3.74,0,0,0-1.6,1.27,2.77,2.77,0,0,0-.48,1.57,2.8,2.8,0,0,0,1,2.41A4.28,4.28,0,0,0,366.24,59.89Z" transform="translate(0.02)"/><path class="cls-4" d="M384.8,63.84V37.51h3.88a1.54,1.54,0,0,1,1.61,1.15l.41,2a15,15,0,0,1,1.46-1.42,9.17,9.17,0,0,1,1.61-1.1,8.31,8.31,0,0,1,4-1,6.08,6.08,0,0,1,4.09,1.35,8.11,8.11,0,0,1,2.4,3.58,8.14,8.14,0,0,1,1.54-2.25,8.73,8.73,0,0,1,2-1.53,9.61,9.61,0,0,1,2.35-.87,11.14,11.14,0,0,1,2.5-.28,10.41,10.41,0,0,1,3.88.67,7.33,7.33,0,0,1,2.85,1.95,8.6,8.6,0,0,1,1.76,3.13,13.67,13.67,0,0,1,.6,4.23V63.84h-6.34V47.08a5.65,5.65,0,0,0-1.1-3.78A4.06,4.06,0,0,0,411.11,42a4.89,4.89,0,0,0-1.81.33,4.31,4.31,0,0,0-1.46,1,4.43,4.43,0,0,0-1,1.58,6.11,6.11,0,0,0-.36,2.18V63.84h-6.36V47.08a5.75,5.75,0,0,0-1.07-3.85,4,4,0,0,0-3.14-1.2,5.13,5.13,0,0,0-2.56.67,8.91,8.91,0,0,0-2.22,1.87V63.84Z" transform="translate(0.02)"/><path class="cls-4" d="M428,72.44V37.51h3.87a1.87,1.87,0,0,1,1.05.28,1.32,1.32,0,0,1,.57.87L434,41.1a13.28,13.28,0,0,1,3.66-3A10,10,0,0,1,442.53,37a8.62,8.62,0,0,1,3.94.9,8.88,8.88,0,0,1,3.08,2.6,12.57,12.57,0,0,1,2,4.21,21.26,21.26,0,0,1,.71,5.74,18.08,18.08,0,0,1-.8,5.47,13.37,13.37,0,0,1-2.27,4.36,10.53,10.53,0,0,1-3.57,2.89,10.38,10.38,0,0,1-4.68,1,9.51,9.51,0,0,1-3.79-.68,9.14,9.14,0,0,1-2.78-1.89V72.44ZM440.35,42a6.47,6.47,0,0,0-3.38.83,9.62,9.62,0,0,0-2.6,2.35V57a6,6,0,0,0,2.35,1.86,7,7,0,0,0,2.73.52,6.08,6.08,0,0,0,2.6-.54,5,5,0,0,0,2-1.64,8.21,8.21,0,0,0,1.25-2.78,16,16,0,0,0,.43-4,17.47,17.47,0,0,0-.37-3.91A7.49,7.49,0,0,0,444.27,44a4.25,4.25,0,0,0-1.68-1.46A5.19,5.19,0,0,0,440.35,42Z" transform="translate(0.02)"/><path class="cls-4" d="M463.81,25.7V63.84h-6.34V25.7Z" transform="translate(0.02)"/><path class="cls-4" d="M481.85,37.1a13,13,0,0,1,4.58.79A10.1,10.1,0,0,1,490,40.21,10.57,10.57,0,0,1,492.4,44a14.07,14.07,0,0,1,.85,5.07,8.06,8.06,0,0,1-.07,1.2A1.9,1.9,0,0,1,493,51a1,1,0,0,1-.44.39,2.14,2.14,0,0,1-.72.11H475.51c.19,2.71.92,4.69,2.18,6a6.84,6.84,0,0,0,5,1.9,8.69,8.69,0,0,0,2.66-.36,12.1,12.1,0,0,0,1.95-.8c.56-.29,1.05-.55,1.47-.79A2.32,2.32,0,0,1,490,57a1.4,1.4,0,0,1,.66.15,1.46,1.46,0,0,1,.49.44L493,59.92A11,11,0,0,1,490.66,62a14.13,14.13,0,0,1-2.74,1.33,14.59,14.59,0,0,1-2.9.7,20.29,20.29,0,0,1-2.86.21,14.27,14.27,0,0,1-5.11-.91,11.58,11.58,0,0,1-4.11-2.7,12.75,12.75,0,0,1-2.74-4.41,17.07,17.07,0,0,1-1-6.1,14.64,14.64,0,0,1,.87-5.07,12.26,12.26,0,0,1,2.5-4.13,11.83,11.83,0,0,1,4-2.78A13,13,0,0,1,481.85,37.1Zm.13,4.54a5.84,5.84,0,0,0-4.34,1.57,7.72,7.72,0,0,0-2,4.44h11.91a8.05,8.05,0,0,0-.33-2.33,5.6,5.6,0,0,0-1-1.91,4.68,4.68,0,0,0-1.75-1.29A5.87,5.87,0,0,0,482,41.64Z" transform="translate(0.02)"/><path class="cls-4" d="M498.41,63.84V37.51h3.72A1.54,1.54,0,0,1,504,39.1l.39,3.18a12.5,12.5,0,0,1,3.31-3.85A7,7,0,0,1,512,37a5.48,5.48,0,0,1,3.23.9l-.82,4.75a1,1,0,0,1-.33.65,1.11,1.11,0,0,1-.69.19,4.14,4.14,0,0,1-1.05-.17,6.67,6.67,0,0,0-1.78-.18,5.35,5.35,0,0,0-3.38,1.09,8.26,8.26,0,0,0-2.39,3.19v16.4Z" transform="translate(0.02)"/><path class="cls-5" d="M128.76,83.36h2.1a.85.85,0,0,1,.57.18,1.15,1.15,0,0,1,.33.45l5.49,13.7a9.93,9.93,0,0,1,.34,1c.11.36.21.73.31,1.12.08-.39.17-.76.26-1.12a10,10,0,0,1,.33-1L144,84a1.08,1.08,0,0,1,.32-.43.86.86,0,0,1,.57-.2H147l-7.92,19.43h-2.37Z" transform="translate(0.02)"/><path class="cls-5" d="M152.29,84.75a1.58,1.58,0,0,1-.14.65,1.75,1.75,0,0,1-.38.55,1.9,1.9,0,0,1-.55.37,1.65,1.65,0,0,1-.66.13,1.59,1.59,0,0,1-.66-.13,1.85,1.85,0,0,1-.54-.37,1.75,1.75,0,0,1-.38-.55,1.57,1.57,0,0,1-.13-.65,1.75,1.75,0,0,1,1.05-1.6,1.59,1.59,0,0,1,.66-.14,1.66,1.66,0,0,1,.66.14,1.72,1.72,0,0,1,.55.37,1.76,1.76,0,0,1,.52,1.23Zm-.54,4.31v13.73h-2.41V89.06Z" transform="translate(0.02)"/><path class="cls-5" d="M163.87,91.32a.54.54,0,0,1-.5.3.92.92,0,0,1-.46-.15l-.64-.33a5.41,5.41,0,0,0-.88-.34,4.4,4.4,0,0,0-1.22-.16,3.69,3.69,0,0,0-1.1.16,2.47,2.47,0,0,0-.84.43,2,2,0,0,0-.52.63,1.55,1.55,0,0,0-.19.78,1.28,1.28,0,0,0,.31.88,2.77,2.77,0,0,0,.81.61,7,7,0,0,0,1.13.45l1.31.42c.45.15.89.32,1.31.5a5,5,0,0,1,1.14.67,3.24,3.24,0,0,1,.8,1,3,3,0,0,1,.31,1.42,4.4,4.4,0,0,1-.34,1.75,3.87,3.87,0,0,1-1,1.4,5,5,0,0,1-1.63.93,6.82,6.82,0,0,1-2.22.33,6.92,6.92,0,0,1-2.6-.46,6.46,6.46,0,0,1-2-1.2l.57-.92a.85.85,0,0,1,.25-.28.76.76,0,0,1,.4-.09.87.87,0,0,1,.51.19,7.78,7.78,0,0,0,.66.42,5.58,5.58,0,0,0,.94.42,4.11,4.11,0,0,0,1.37.19,3.8,3.8,0,0,0,1.23-.18,2.55,2.55,0,0,0,.89-.5,2.14,2.14,0,0,0,.52-.72,2.27,2.27,0,0,0,.17-.86,1.48,1.48,0,0,0-.31-1,2.51,2.51,0,0,0-.81-.63,6,6,0,0,0-1.14-.46l-1.31-.42c-.45-.14-.89-.31-1.32-.49a4.91,4.91,0,0,1-1.15-.7,3.08,3.08,0,0,1-.8-1,3.26,3.26,0,0,1-.31-1.5,3.64,3.64,0,0,1,.33-1.51,3.54,3.54,0,0,1,.95-1.27,4.56,4.56,0,0,1,1.53-.88,6.29,6.29,0,0,1,2.07-.32,6.47,6.47,0,0,1,2.44.43,5.76,5.76,0,0,1,1.86,1.17Z" transform="translate(0.02)"/><path class="cls-5" d="M169.86,89.06v8.75a3.66,3.66,0,0,0,.72,2.42,2.67,2.67,0,0,0,2.17.85,4.23,4.23,0,0,0,2-.5,6.39,6.39,0,0,0,1.72-1.4V89.06h2.41v13.73h-1.43a.61.61,0,0,1-.65-.5l-.19-1.48a7.58,7.58,0,0,1-2,1.59,5.28,5.28,0,0,1-2.55.6,4.89,4.89,0,0,1-2-.37,4,4,0,0,1-1.45-1,4.37,4.37,0,0,1-.87-1.64,7.13,7.13,0,0,1-.29-2.13V89.06Z" transform="translate(0.02)"/><path class="cls-5" d="M192.93,102.79h-1.07a1.28,1.28,0,0,1-.57-.11.61.61,0,0,1-.29-.46l-.27-1.28c-.36.33-.71.62-1,.88a6.4,6.4,0,0,1-1.09.65,5.92,5.92,0,0,1-1.21.4A7,7,0,0,1,186,103a4.86,4.86,0,0,1-1.5-.22,3.32,3.32,0,0,1-1.21-.67,3.09,3.09,0,0,1-.82-1.14,3.87,3.87,0,0,1-.31-1.62,3,3,0,0,1,.45-1.57A3.84,3.84,0,0,1,184,96.44a9.54,9.54,0,0,1,2.61-1,17.73,17.73,0,0,1,3.95-.38V94a3.72,3.72,0,0,0-.69-2.44,2.47,2.47,0,0,0-2-.83,4.28,4.28,0,0,0-1.49.23,5.3,5.3,0,0,0-1,.5c-.3.19-.55.35-.76.5a1.09,1.09,0,0,1-.63.23.78.78,0,0,1-.43-.13,1.1,1.1,0,0,1-.29-.32l-.43-.77a7.84,7.84,0,0,1,2.45-1.65,7.62,7.62,0,0,1,2.91-.54,5.28,5.28,0,0,1,2.05.38,4.08,4.08,0,0,1,1.5,1.06,4.47,4.47,0,0,1,.93,1.64,7.09,7.09,0,0,1,.31,2.12Zm-6.26-1.48a4.68,4.68,0,0,0,1.16-.13,4.76,4.76,0,0,0,1-.36,5.66,5.66,0,0,0,.89-.58,7.5,7.5,0,0,0,.84-.77V96.63a17.37,17.37,0,0,0-2.84.21,8.1,8.1,0,0,0-1.89.56,2.66,2.66,0,0,0-1.07.8,1.76,1.76,0,0,0-.33,1,2.25,2.25,0,0,0,.18.94,1.73,1.73,0,0,0,.47.65,2,2,0,0,0,.71.37A3.48,3.48,0,0,0,186.67,101.31Z" transform="translate(0.02)"/><path class="cls-5" d="M199.27,82.82v20h-2.41v-20Z" transform="translate(0.02)"/><path class="cls-5" d="M206.75,84.75a1.44,1.44,0,0,1-.14.65,1.75,1.75,0,0,1-.38.55,1.9,1.9,0,0,1-.55.37,1.65,1.65,0,0,1-.66.13,1.59,1.59,0,0,1-.66-.13,2,2,0,0,1-.54-.37,1.72,1.72,0,0,1-.37-.55,1.58,1.58,0,0,1-.14-.65,1.8,1.8,0,0,1,.51-1.23,1.79,1.79,0,0,1,.54-.37A1.59,1.59,0,0,1,205,83a1.66,1.66,0,0,1,.66.14,1.72,1.72,0,0,1,.55.37,1.68,1.68,0,0,1,.38.56A1.52,1.52,0,0,1,206.75,84.75Zm-.54,4.31v13.73H203.8V89.06Z" transform="translate(0.02)"/><path class="cls-5" d="M220.05,90.09a1.37,1.37,0,0,1-.09.49,2,2,0,0,1-.25.43l-7.43,9.89h7.5v1.89H209.44v-1a1.22,1.22,0,0,1,.09-.41,1.43,1.43,0,0,1,.25-.45l7.46-10h-7.38V89.06h10.19Z" transform="translate(0.02)"/><path class="cls-5" d="M226.22,84.75a1.58,1.58,0,0,1-.14.65,2.15,2.15,0,0,1-.38.55,2,2,0,0,1-.55.37,1.67,1.67,0,0,1-.67.13,1.57,1.57,0,0,1-.65-.13,1.73,1.73,0,0,1-.92-.92,1.58,1.58,0,0,1-.14-.65,1.67,1.67,0,0,1,.14-.67,1.82,1.82,0,0,1,.37-.56,1.72,1.72,0,0,1,.55-.37,1.58,1.58,0,0,1,.65-.14,1.67,1.67,0,0,1,.67.14,1.84,1.84,0,0,1,.55.37,2,2,0,0,1,.38.56A1.67,1.67,0,0,1,226.22,84.75Zm-.54,4.31v13.73h-2.42V89.06Z" transform="translate(0.02)"/><path class="cls-5" d="M229.93,102.79V89.06h1.44a.61.61,0,0,1,.65.5l.19,1.49a7.62,7.62,0,0,1,2-1.6,5.15,5.15,0,0,1,2.55-.61,5,5,0,0,1,2,.37,3.92,3.92,0,0,1,1.44,1.06,4.81,4.81,0,0,1,.87,1.65,7.1,7.1,0,0,1,.3,2.12v8.75H239V94a3.7,3.7,0,0,0-.72-2.42,2.66,2.66,0,0,0-2.17-.86,4.08,4.08,0,0,0-2,.52,6.58,6.58,0,0,0-1.72,1.4v10.11Z" transform="translate(0.02)"/><path class="cls-5" d="M249.63,88.83a6.89,6.89,0,0,1,1.67.19,5.43,5.43,0,0,1,1.42.58h3.72v.89c0,.3-.19.49-.56.57l-1.56.22a4.27,4.27,0,0,1,.46,2,4.22,4.22,0,0,1-.39,1.82,4.09,4.09,0,0,1-1.07,1.4,4.86,4.86,0,0,1-1.63.9,6.69,6.69,0,0,1-2.06.31,7.09,7.09,0,0,1-1.82-.23,2.29,2.29,0,0,0-.66.6,1.09,1.09,0,0,0-.22.63.84.84,0,0,0,.39.76,2.68,2.68,0,0,0,1.05.38,9.18,9.18,0,0,0,1.47.11h1.69a9.48,9.48,0,0,1,1.69.15,5.15,5.15,0,0,1,1.48.49,2.61,2.61,0,0,1,1.43,2.51,3.56,3.56,0,0,1-.44,1.73,4.46,4.46,0,0,1-1.27,1.49,6.31,6.31,0,0,1-2,1,8.59,8.59,0,0,1-2.69.4,10.37,10.37,0,0,1-2.64-.3,6.41,6.41,0,0,1-1.88-.8,3.57,3.57,0,0,1-1.11-1.16,2.76,2.76,0,0,1-.38-1.38,2.48,2.48,0,0,1,.65-1.73,4.36,4.36,0,0,1,1.77-1.13,2.45,2.45,0,0,1-.93-.73,1.93,1.93,0,0,1-.35-1.21,2,2,0,0,1,.11-.62,2.2,2.2,0,0,1,.33-.62,3.4,3.4,0,0,1,.55-.6,3.45,3.45,0,0,1,.76-.5A4.2,4.2,0,0,1,245,95.45a4.08,4.08,0,0,1-.58-2.2,4.23,4.23,0,0,1,.39-1.83A3.77,3.77,0,0,1,245.89,90a4.8,4.8,0,0,1,1.64-.89A6.7,6.7,0,0,1,249.63,88.83Zm4.28,14.66a1.22,1.22,0,0,0-.29-.85,1.8,1.8,0,0,0-.77-.49,6.17,6.17,0,0,0-1.12-.26,11.67,11.67,0,0,0-1.35-.08H249a5.32,5.32,0,0,1-1.4-.18,3.83,3.83,0,0,0-1.25.9,1.8,1.8,0,0,0-.48,1.26,1.73,1.73,0,0,0,.23.86,2,2,0,0,0,.73.69,4,4,0,0,0,1.23.46,7.43,7.43,0,0,0,1.74.17,7.78,7.78,0,0,0,1.75-.18,4.48,4.48,0,0,0,1.31-.51,2.36,2.36,0,0,0,.81-.79A1.85,1.85,0,0,0,253.91,103.49Zm-4.28-7.41a3.93,3.93,0,0,0,1.29-.2,2.66,2.66,0,0,0,.94-.57,2.23,2.23,0,0,0,.57-.88,3.1,3.1,0,0,0,.19-1.12,2.65,2.65,0,0,0-.76-2,3.68,3.68,0,0,0-4.45,0,2.65,2.65,0,0,0-.77,2,3.1,3.1,0,0,0,.2,1.12,2.37,2.37,0,0,0,.58.88,2.7,2.7,0,0,0,.93.57A3.86,3.86,0,0,0,249.63,96.08Z" transform="translate(0.02)"/><path class="cls-5" d="M266.77,82.82v20h-2.41v-20Z" transform="translate(0.02)"/><path class="cls-5" d="M281.11,102.79H280a1.35,1.35,0,0,1-.57-.11.6.6,0,0,1-.28-.46l-.27-1.28c-.36.33-.72.62-1.06.88a6.32,6.32,0,0,1-1.08.65,6,6,0,0,1-1.22.4,7,7,0,0,1-1.43.13,4.9,4.9,0,0,1-1.5-.22,3.49,3.49,0,0,1-1.21-.67,3.21,3.21,0,0,1-.82-1.14,4,4,0,0,1-.3-1.62,3.08,3.08,0,0,1,.44-1.57,3.8,3.8,0,0,1,1.45-1.34,9.3,9.3,0,0,1,2.61-1,17.63,17.63,0,0,1,3.94-.38V94a3.78,3.78,0,0,0-.68-2.44,2.5,2.5,0,0,0-2-.83,4.22,4.22,0,0,0-1.48.23,5.41,5.41,0,0,0-1.05.5l-.76.5a1.09,1.09,0,0,1-.63.23.75.75,0,0,1-.42-.13,1.14,1.14,0,0,1-.3-.32L271,91a8,8,0,0,1,2.45-1.65,7.63,7.63,0,0,1,2.92-.54,5.19,5.19,0,0,1,2,.38,4.21,4.21,0,0,1,1.51,1.06,4.46,4.46,0,0,1,.92,1.64,6.79,6.79,0,0,1,.31,2.12Zm-6.26-1.48a4.76,4.76,0,0,0,1.17-.13,4.67,4.67,0,0,0,1-.36,6.25,6.25,0,0,0,.9-.58,8.42,8.42,0,0,0,.83-.77V96.63a17.24,17.24,0,0,0-2.83.21,8.19,8.19,0,0,0-1.9.56,2.62,2.62,0,0,0-1.06.8,1.71,1.71,0,0,0-.34,1,2.25,2.25,0,0,0,.18.94,1.87,1.87,0,0,0,.48.65,2,2,0,0,0,.7.37A3.48,3.48,0,0,0,274.85,101.31Z" transform="translate(0.02)"/><path class="cls-5" d="M284.77,102.79V89.06h1.38a.77.77,0,0,1,.55.15.94.94,0,0,1,.2.51l.16,2.14a6.28,6.28,0,0,1,1.75-2.24,3.83,3.83,0,0,1,2.43-.81,4.09,4.09,0,0,1,1,.13,3.81,3.81,0,0,1,.85.36l-.31,1.8a.4.4,0,0,1-.42.34,1.93,1.93,0,0,1-.58-.13,3.94,3.94,0,0,0-1.1-.12,3.11,3.11,0,0,0-2.11.73A5.42,5.42,0,0,0,287.19,94v8.75Z" transform="translate(0.02)"/><path class="cls-5" d="M300.32,88.83A6.83,6.83,0,0,1,302,89a5.29,5.29,0,0,1,1.42.58h3.73v.89q0,.45-.57.57l-1.56.22a4.15,4.15,0,0,1,.46,2,4.22,4.22,0,0,1-.39,1.82,4,4,0,0,1-1.07,1.4,4.81,4.81,0,0,1-1.62.9,6.81,6.81,0,0,1-2.07.31,7.14,7.14,0,0,1-1.82-.23,2.24,2.24,0,0,0-.65.6,1.11,1.11,0,0,0-.23.63.83.83,0,0,0,.4.76,2.69,2.69,0,0,0,1,.38,9.31,9.31,0,0,0,1.48.11h1.68a9.4,9.4,0,0,1,1.69.15,5.05,5.05,0,0,1,1.48.49,2.8,2.8,0,0,1,1,1,2.74,2.74,0,0,1,.4,1.56,3.68,3.68,0,0,1-.44,1.73,4.7,4.7,0,0,1-1.27,1.49,6.41,6.41,0,0,1-2,1,8.7,8.7,0,0,1-2.7.4,10.29,10.29,0,0,1-2.63-.3,6.3,6.3,0,0,1-1.88-.8,3.61,3.61,0,0,1-1.12-1.16,2.75,2.75,0,0,1-.37-1.38,2.47,2.47,0,0,1,.64-1.73,4.36,4.36,0,0,1,1.77-1.13,2.45,2.45,0,0,1-.93-.73,1.93,1.93,0,0,1-.34-1.21,2,2,0,0,1,.1-.62,2.53,2.53,0,0,1,.34-.62,3.06,3.06,0,0,1,.55-.6,3.16,3.16,0,0,1,.75-.5,4.35,4.35,0,0,1-1.59-1.51,4.17,4.17,0,0,1-.57-2.2,4.22,4.22,0,0,1,.38-1.83A4,4,0,0,1,296.58,90a4.85,4.85,0,0,1,1.65-.89A6.6,6.6,0,0,1,300.32,88.83Zm4.28,14.66a1.21,1.21,0,0,0-.28-.85,1.93,1.93,0,0,0-.77-.49,6.29,6.29,0,0,0-1.13-.26,11.36,11.36,0,0,0-1.34-.08h-1.44a5.24,5.24,0,0,1-1.39-.18,3.77,3.77,0,0,0-1.26.9,1.8,1.8,0,0,0-.48,1.26,1.64,1.64,0,0,0,.24.86,2,2,0,0,0,.72.69,4.1,4.1,0,0,0,1.23.46,7.43,7.43,0,0,0,1.74.17,7.72,7.72,0,0,0,1.75-.18,4.37,4.37,0,0,0,1.31-.51,2.4,2.4,0,0,0,.82-.79A1.84,1.84,0,0,0,304.6,103.49Zm-4.28-7.41a3.88,3.88,0,0,0,1.29-.2,2.8,2.8,0,0,0,.95-.57,2.48,2.48,0,0,0,.57-.88,3.33,3.33,0,0,0,.19-1.12,2.65,2.65,0,0,0-.77-2,3.68,3.68,0,0,0-4.45,0,2.65,2.65,0,0,0-.76,2,3.1,3.1,0,0,0,.19,1.12,2.65,2.65,0,0,0,.58.88,2.75,2.75,0,0,0,.94.57A3.8,3.8,0,0,0,300.32,96.08Z" transform="translate(0.02)"/><path class="cls-5" d="M315,88.84a6.19,6.19,0,0,1,2.27.41,5.21,5.21,0,0,1,1.81,1.2,5.46,5.46,0,0,1,1.18,1.92,7.37,7.37,0,0,1,.43,2.61,1.61,1.61,0,0,1-.12.76.5.5,0,0,1-.46.19H311a7.83,7.83,0,0,0,.35,2.26,4.72,4.72,0,0,0,.9,1.61,3.56,3.56,0,0,0,1.35,1,4.73,4.73,0,0,0,1.77.32,5.17,5.17,0,0,0,1.56-.21,7.37,7.37,0,0,0,1.13-.45c.32-.17.58-.32.8-.46a1,1,0,0,1,.54-.21.53.53,0,0,1,.46.23l.68.88a4.67,4.67,0,0,1-1.07,1,6.83,6.83,0,0,1-1.33.65,9.37,9.37,0,0,1-1.47.39,8.64,8.64,0,0,1-1.51.13,7,7,0,0,1-2.62-.48,5.69,5.69,0,0,1-2.07-1.41,6.49,6.49,0,0,1-1.37-2.3,9.47,9.47,0,0,1-.49-3.15A7.85,7.85,0,0,1,309,93a6.28,6.28,0,0,1,1.26-2.16,5.91,5.91,0,0,1,2-1.44A6.62,6.62,0,0,1,315,88.84Zm.05,1.78a3.7,3.7,0,0,0-2.75,1,4.76,4.76,0,0,0-1.25,2.8h7.47a4.91,4.91,0,0,0-.23-1.53,3.34,3.34,0,0,0-.68-1.21,3.09,3.09,0,0,0-1.09-.79A3.78,3.78,0,0,0,315,90.62Z" transform="translate(0.02)"/><path class="cls-5" d="M336.85,91.32a.54.54,0,0,1-.5.3.92.92,0,0,1-.46-.15c-.17-.1-.39-.21-.63-.33a5.94,5.94,0,0,0-.89-.34,4.35,4.35,0,0,0-1.22-.16,3.74,3.74,0,0,0-1.1.16,2.33,2.33,0,0,0-.83.43,1.86,1.86,0,0,0-.53.63,1.67,1.67,0,0,0-.19.78,1.33,1.33,0,0,0,.31.88,2.77,2.77,0,0,0,.81.61,6.77,6.77,0,0,0,1.14.45l1.3.42c.45.15.89.32,1.31.5a4.57,4.57,0,0,1,1.14.67,3.27,3.27,0,0,1,.81,1,3.1,3.1,0,0,1,.3,1.42,4.4,4.4,0,0,1-.34,1.75,3.76,3.76,0,0,1-1,1.4,5,5,0,0,1-1.63.93,6.82,6.82,0,0,1-2.22.33,6.92,6.92,0,0,1-2.6-.46,6.46,6.46,0,0,1-2-1.2l.57-.92a.88.88,0,0,1,.26-.28.75.75,0,0,1,.39-.09.87.87,0,0,1,.51.19,7.78,7.78,0,0,0,.66.42,5.58,5.58,0,0,0,.94.42,4.11,4.11,0,0,0,1.37.19,3.9,3.9,0,0,0,1.24-.18,2.6,2.6,0,0,0,.88-.5,2,2,0,0,0,.52-.72,2.27,2.27,0,0,0,.17-.86,1.43,1.43,0,0,0-.31-1,2.57,2.57,0,0,0-.8-.63A6.41,6.41,0,0,0,333.1,97l-1.31-.42c-.45-.14-.89-.31-1.32-.49a4.65,4.65,0,0,1-1.14-.7,3,3,0,0,1-.81-1,3.4,3.4,0,0,1-.31-1.5A3.69,3.69,0,0,1,329.49,90a4.56,4.56,0,0,1,1.53-.88,6.34,6.34,0,0,1,2.07-.32,6.47,6.47,0,0,1,2.44.43,5.55,5.55,0,0,1,1.86,1.17Z" transform="translate(0.02)"/><path class="cls-5" d="M346.19,88.84a6.28,6.28,0,0,1,2.28.41,5.26,5.26,0,0,1,1.8,1.2,5.32,5.32,0,0,1,1.18,1.92,7.37,7.37,0,0,1,.43,2.61,1.61,1.61,0,0,1-.12.76.49.49,0,0,1-.46.19h-9.14a7.48,7.48,0,0,0,.36,2.26,4.54,4.54,0,0,0,.89,1.61,3.52,3.52,0,0,0,1.36,1,4.68,4.68,0,0,0,1.76.32,5.12,5.12,0,0,0,1.56-.21,7.37,7.37,0,0,0,1.13-.45c.32-.17.58-.32.8-.46a1,1,0,0,1,.55-.21.54.54,0,0,1,.46.23l.68.88a4.72,4.72,0,0,1-1.08,1,6.83,6.83,0,0,1-1.33.65,8.82,8.82,0,0,1-1.47.39,8.64,8.64,0,0,1-1.51.13,7,7,0,0,1-2.62-.48,5.69,5.69,0,0,1-2.07-1.41,6.33,6.33,0,0,1-1.36-2.3,9.22,9.22,0,0,1-.49-3.15,7.85,7.85,0,0,1,.44-2.68,6.14,6.14,0,0,1,1.27-2.16,5.81,5.81,0,0,1,2-1.44A6.54,6.54,0,0,1,346.19,88.84Zm.05,1.78a3.72,3.72,0,0,0-2.75,1,4.82,4.82,0,0,0-1.25,2.8h7.47a4.64,4.64,0,0,0-.23-1.53,3.47,3.47,0,0,0-.67-1.21,3.13,3.13,0,0,0-1.1-.79A3.74,3.74,0,0,0,346.24,90.62Z" transform="translate(0.02)"/><path class="cls-5" d="M366.06,89.06v18.38h-2.41v-6.69a7.27,7.27,0,0,1-2,1.62,5.19,5.19,0,0,1-2.52.61,4.83,4.83,0,0,1-2.14-.46,4.4,4.4,0,0,1-1.65-1.33,6.52,6.52,0,0,1-1-2.2,11.4,11.4,0,0,1-.37-3,9.58,9.58,0,0,1,.41-2.83,6.88,6.88,0,0,1,1.17-2.27,5.59,5.59,0,0,1,1.87-1.51,5.43,5.43,0,0,1,2.49-.55,4.87,4.87,0,0,1,2.26.48,5.25,5.25,0,0,1,1.66,1.34l.16-1.07a.61.61,0,0,1,.65-.5ZM360,101a3.89,3.89,0,0,0,2.06-.55A6,6,0,0,0,363.65,99V92.31a4,4,0,0,0-1.45-1.24,4.13,4.13,0,0,0-1.77-.37,3.46,3.46,0,0,0-2.95,1.37,6.35,6.35,0,0,0-1,3.9,9.65,9.65,0,0,0,.23,2.3,4.28,4.28,0,0,0,.68,1.57,2.59,2.59,0,0,0,1.1.9A3.67,3.67,0,0,0,360,101Z" transform="translate(0.02)"/><path class="cls-5" d="M372.2,89.06v8.75a3.66,3.66,0,0,0,.72,2.42,2.67,2.67,0,0,0,2.17.85,4.2,4.2,0,0,0,2-.5,6.24,6.24,0,0,0,1.72-1.4V89.06h2.41v13.73h-1.43a.61.61,0,0,1-.65-.5l-.19-1.48a7.58,7.58,0,0,1-2,1.59,5.28,5.28,0,0,1-2.55.6,4.89,4.89,0,0,1-2-.37,4,4,0,0,1-1.45-1,4.37,4.37,0,0,1-.87-1.64,7.13,7.13,0,0,1-.29-2.13V89.06Z" transform="translate(0.02)"/><path class="cls-5" d="M390.62,88.84a6.28,6.28,0,0,1,2.28.41,5.26,5.26,0,0,1,1.8,1.2,5.48,5.48,0,0,1,1.19,1.92,7.6,7.6,0,0,1,.42,2.61,1.61,1.61,0,0,1-.12.76.49.49,0,0,1-.46.19h-9.14a7.48,7.48,0,0,0,.36,2.26,4.54,4.54,0,0,0,.89,1.61,3.52,3.52,0,0,0,1.36,1,4.68,4.68,0,0,0,1.76.32,5.24,5.24,0,0,0,1.57-.21,8.3,8.3,0,0,0,1.13-.45c.31-.17.58-.32.79-.46a1,1,0,0,1,.55-.21.54.54,0,0,1,.46.23l.68.88a4.89,4.89,0,0,1-1.07,1,6.92,6.92,0,0,1-1.34.65,8.82,8.82,0,0,1-1.47.39,8.53,8.53,0,0,1-1.5.13,7,7,0,0,1-2.63-.48,5.69,5.69,0,0,1-2.07-1.41,6.47,6.47,0,0,1-1.36-2.3,9.22,9.22,0,0,1-.49-3.15,8.1,8.1,0,0,1,.44-2.68,6.3,6.3,0,0,1,1.27-2.16,5.81,5.81,0,0,1,2-1.44A6.57,6.57,0,0,1,390.62,88.84Zm.05,1.78a3.72,3.72,0,0,0-2.75,1,4.75,4.75,0,0,0-1.24,2.8h7.46a4.92,4.92,0,0,0-.22-1.53,3.66,3.66,0,0,0-.68-1.21,3.18,3.18,0,0,0-1.09-.79A3.79,3.79,0,0,0,390.67,90.62Z" transform="translate(0.02)"/><path class="cls-5" d="M399.39,102.79V89.06h1.44a.61.61,0,0,1,.65.5l.19,1.49a7.62,7.62,0,0,1,2-1.6,5.12,5.12,0,0,1,2.55-.61,5,5,0,0,1,2,.37,3.92,3.92,0,0,1,1.44,1.06,4.81,4.81,0,0,1,.87,1.65,7.1,7.1,0,0,1,.3,2.12v8.75h-2.41V94a3.7,3.7,0,0,0-.72-2.42,2.66,2.66,0,0,0-2.17-.86,4.08,4.08,0,0,0-2,.52,6.58,6.58,0,0,0-1.72,1.4v10.11Z" transform="translate(0.02)"/><path class="cls-5" d="M423.83,91.5a1,1,0,0,1-.22.23.52.52,0,0,1-.31.08.79.79,0,0,1-.44-.17,6.59,6.59,0,0,0-.6-.37,5.4,5.4,0,0,0-.89-.38,4.31,4.31,0,0,0-1.28-.17,4.19,4.19,0,0,0-1.78.36,3.52,3.52,0,0,0-1.29,1,4.72,4.72,0,0,0-.79,1.64,8.41,8.41,0,0,0-.26,2.16,7.81,7.81,0,0,0,.28,2.21,4.87,4.87,0,0,0,.8,1.63,3.39,3.39,0,0,0,1.26,1,3.85,3.85,0,0,0,1.66.35,4.28,4.28,0,0,0,1.45-.21,4.67,4.67,0,0,0,.95-.47A6.58,6.58,0,0,0,423,100a.74.74,0,0,1,.49-.21.51.51,0,0,1,.46.23l.68.88a5.31,5.31,0,0,1-2.24,1.61,7.93,7.93,0,0,1-2.83.51,6,6,0,0,1-2.4-.48,5.38,5.38,0,0,1-1.91-1.37A6.53,6.53,0,0,1,414,98.91a8.9,8.9,0,0,1-.46-3,9.19,9.19,0,0,1,.42-2.84,6.53,6.53,0,0,1,1.25-2.24,5.59,5.59,0,0,1,2-1.47,6.83,6.83,0,0,1,2.76-.53,6.37,6.37,0,0,1,2.55.47,6.09,6.09,0,0,1,2,1.32Z" transform="translate(0.02)"/><path class="cls-5" d="M432.56,88.84a6.28,6.28,0,0,1,2.28.41,5.26,5.26,0,0,1,1.8,1.2,5.32,5.32,0,0,1,1.18,1.92,7.37,7.37,0,0,1,.43,2.61,1.61,1.61,0,0,1-.12.76.49.49,0,0,1-.46.19h-9.14a7.48,7.48,0,0,0,.36,2.26,4.54,4.54,0,0,0,.89,1.61,3.52,3.52,0,0,0,1.36,1,4.68,4.68,0,0,0,1.76.32,5.12,5.12,0,0,0,1.56-.21,7.37,7.37,0,0,0,1.13-.45c.32-.17.58-.32.8-.46a1,1,0,0,1,.55-.21.54.54,0,0,1,.46.23l.68.88a4.72,4.72,0,0,1-1.08,1,6.83,6.83,0,0,1-1.33.65,8.82,8.82,0,0,1-1.47.39,8.64,8.64,0,0,1-1.51.13,7,7,0,0,1-2.62-.48,5.69,5.69,0,0,1-2.07-1.41,6.33,6.33,0,0,1-1.36-2.3,9.22,9.22,0,0,1-.49-3.15,7.85,7.85,0,0,1,.44-2.68,6.14,6.14,0,0,1,1.27-2.16,5.81,5.81,0,0,1,2-1.44A6.54,6.54,0,0,1,432.56,88.84Zm.05,1.78a3.72,3.72,0,0,0-2.75,1,4.82,4.82,0,0,0-1.25,2.8h7.47a4.64,4.64,0,0,0-.23-1.53,3.47,3.47,0,0,0-.67-1.21,3.13,3.13,0,0,0-1.1-.79A3.74,3.74,0,0,0,432.61,90.62Z" transform="translate(0.02)"/><path class="cls-5" d="M449.19,91.32a.53.53,0,0,1-.5.3.92.92,0,0,1-.46-.15c-.18-.1-.38-.21-.63-.33a5.94,5.94,0,0,0-.89-.34,4.35,4.35,0,0,0-1.22-.16,3.74,3.74,0,0,0-1.1.16,2.42,2.42,0,0,0-.83.43,1.86,1.86,0,0,0-.53.63,1.66,1.66,0,0,0-.18.78,1.32,1.32,0,0,0,.3.88,2.91,2.91,0,0,0,.81.61,6.77,6.77,0,0,0,1.14.45l1.3.42c.45.15.89.32,1.31.5a4.57,4.57,0,0,1,1.14.67,3.43,3.43,0,0,1,.81,1,3.1,3.1,0,0,1,.3,1.42,4.4,4.4,0,0,1-.34,1.75,3.76,3.76,0,0,1-1,1.4,4.87,4.87,0,0,1-1.63.93,6.82,6.82,0,0,1-2.22.33,7,7,0,0,1-2.6-.46,6.46,6.46,0,0,1-2-1.2l.57-.92a.88.88,0,0,1,.26-.28.75.75,0,0,1,.39-.09.87.87,0,0,1,.51.19c.18.13.41.27.66.42a5.58,5.58,0,0,0,.94.42,4.11,4.11,0,0,0,1.37.19,3.9,3.9,0,0,0,1.24-.18,2.6,2.6,0,0,0,.88-.5,2,2,0,0,0,.52-.72,2.27,2.27,0,0,0,.17-.86,1.43,1.43,0,0,0-.31-1,2.57,2.57,0,0,0-.8-.63,6.41,6.41,0,0,0-1.15-.46l-1.31-.42c-.45-.14-.89-.31-1.32-.49a4.65,4.65,0,0,1-1.14-.7,3,3,0,0,1-.81-1,3.4,3.4,0,0,1-.3-1.5A3.64,3.64,0,0,1,441.83,90a4.76,4.76,0,0,1,1.53-.88,6.35,6.35,0,0,1,2.08-.32,6.46,6.46,0,0,1,2.43.43,5.55,5.55,0,0,1,1.86,1.17Z" transform="translate(0.02)"/></g></g></svg>